<svg height="24" viewBox="0 0 24 24" width="24" xmlns="http://www.w3.org/2000/svg"><g fill="none" fill-rule="evenodd"><path d="m12 22.13c5.595 0 10.13-4.535 10.13-10.13s-4.535-10.13-10.13-10.13-10.13 4.535-10.13 10.13 4.535 10.13 10.13 10.13zm0 1.87c-6.627 0-12-5.373-12-12s5.373-12 12-12 12 5.373 12 12-5.373 12-12 12z" fill="#9a9a9a" fill-rule="nonzero"/><path d="m16.487 11.18-1.469.005v1.47h1.47v1.466h1.467v-1.467h1.466v-1.469h-1.466v-1.467h-1.468zm-3.09 4.616h-1.44v-5.046h-1.822v-1.1c.256.007.826-.012 1.331-.261.506-.25.8-.585.855-.864h1.076v7.272zm-9.094-4.39a3.421 3.421 0 0 1 .142-1.135c.109-.35.272-.656.49-.917.216-.262.49-.465.82-.611.328-.146.707-.22 1.135-.22.326 0 .636.052.932.153a2.4 2.4 0 0 1 .779.438 2.093 2.093 0 0 1 .733 1.64c0 .36-.057.67-.173.927a2.435 2.435 0 0 1 -.458.688c-.19.2-.406.382-.647.545a54.14 54.14 0 0 1 -.728.484 9.47 9.47 0 0 0 -.713.514 3.186 3.186 0 0 0 -.611.642h3.371v1.242h-5.235c0-.414.059-.774.178-1.08.119-.305.28-.578.484-.82.203-.24.443-.463.718-.666.275-.204.565-.411.87-.622.157-.108.323-.219.5-.33a3.32 3.32 0 0 0 .484-.373 1.98 1.98 0 0 0 .366-.458 1.13 1.13 0 0 0 .148-.58c0-.347-.1-.617-.3-.81-.2-.194-.457-.29-.77-.29a.936.936 0 0 0 -.534.147 1.103 1.103 0 0 0 -.352.387c-.088.16-.15.336-.188.53a3.032 3.032 0 0 0 -.056.575z" fill="#999" opacity=".99"/></g></svg>