<svg height="50" viewBox="0 0 58 50" width="58" xmlns="http://www.w3.org/2000/svg"><g fill="#999" fill-rule="evenodd"><path d="m16.965 13.1578947-.0945652-1.1234226-1.0654348-.046168 1.015-.7309942.0504348-1.0233918.8195652.7309942h1.305l-.725.5847953.435 1.0233918-1.015-.4385965z"/><path d="m21.895 11.4035088.725-3.2163743-3.19-.87719298c.87-.38986355 1.6916667-.68226121 2.465-.87719298.7733333-.19493178 1.16-.29239766 1.16-.29239766l1.015-2.92397661 1.45 2.63157895c.4833333 0 1.1116667.04873294 1.885.14619883.7733333.09746588 1.4016667.24366471 1.885.43859649l-2.61 1.16959064 1.45 2.63157892-3.335-1.46198828z"/><path d="m30.45 11.9883041 3.48-5.55555556-3.48-2.19298246c1.0633333-.29239766 2.03-.48732943 2.9-.58479532s1.74-.1448737 2.61-.14222343c1.45-2.43550481 2.175-3.60454713 2.175-3.50712693 0 .09742019.3383333 1.46130289 1.015 4.09164809.9666667.19703371 1.7883333.39187409 2.465.58452115s1.595.53361774 2.755 1.02291203c-1.16.09742019-2.0783333.19484038-2.755.29226057-.6766667.0974202-1.2566667.24355049-1.74.43839087.1933333.58516088.3383333 1.31581232.435 2.19195434.0966667.87614201.1933333 1.75292375.29 2.63034515-.4833333-.5850237-1.1116667-1.2186662-1.885-1.90092745-.7733333-.68226121-1.4983333-1.16959065-2.175-1.46198831-.9089166.44141499-1.7789166.92874442-2.61 1.46198831-.8310834.53324388-1.9910834 1.41043685-3.48 2.63157895z"/><path d="m44.37 15.6432749c.6234245-1.0005483 1.1067578-1.7315424 1.45-2.1929825s.7299089-.9000366 1.16-1.3157895l-2.61-2.33918126c.7733333-.09746589 1.595-.09746589 2.465 0 .87.09746588 1.5466667.19493177 2.03.29239766l2.465-2.77777778v3.65497078c.4488108.143522 1.0288108.4359196 1.74.877193.7111892.4412733 1.3878559.9286027 2.03 1.4619883l-3.335-.1461989v3.8011696l-2.755-3.3625731c-.5245549.1095578-1.1045549.3044896-1.74.5847953-.6354451.2803058-1.6021118.7676352-2.9 1.4619884z"/><path d="m51.91 23.122807 1.015-1.2631579-1.015-1.122807 1.885.2807018c.7733333-.5614035 1.16-.8421053 1.16-.8421053v1.5438596l1.305.7017544h-1.305l-.29 1.5555556-.87-1.5555556z"/><path d="m33.35 41.2280702h-2.32c-.6766667-6.4327486-2.5133333-11.9395712-5.51-16.5204679-2.9966667-4.5808966-6.4766667-8.0409356-10.44-10.3801169 5.22 2.0467836 9.28 5.2631579 12.18 9.6491228s4.93 10.1364522 6.09 17.251462z"/><path d="m40.6 41.2280702h-2.32c-.87-6.5302144-2.8033333-12.08577-5.8-16.6666667s-6.4766667-7.9922027-10.44-10.2339181c5.3166667 2.0467836 9.425 5.2631579 12.325 9.6491228s4.9783333 10.1364522 6.235 17.251462z"/><path d="m36.54 41.2280702h-.87c-.87-6.5302144-2.8033333-12.08577-5.8-16.6666667s-6.4766667-7.9922027-10.44-10.2339181c4.64 2.4366472 8.41 5.8479532 11.31 10.2339181s4.8333333 9.9415205 5.8 16.6666667z"/><path d="m46.69 41.2280702h-1.1694309c-.8770732-6.5302144-2.8261247-12.08577-5.8471545-16.6666667s-6.6755013-7.9922027-10.9634146-10.2339181c4.9700813 2.0467836 8.9169106 5.2631579 11.8404878 9.6491228s4.9700813 10.1364522 6.1395122 17.251462z"/><path d="m49.3 41.2280702h-.8771901c-.8771901-6.5302144-2.8265014-12.08577-5.8479339-16.6666667s-6.6763912-7.9922027-10.964876-10.2339181c4.7758127 2.0467836 8.6257025 5.2631579 11.5496694 9.6491228 2.923967 4.3859649 4.9707438 10.1364522 6.1403306 17.251462z"/><path d="m51.33 41.2280702h-.5847934c-.8771901-6.5302144-2.8265014-12.08577-5.8479339-16.6666667s-6.7738567-7.9922027-11.2572727-10.2339181c4.7758127 2.0467836 8.6257025 5.2631579 11.5496694 9.6491228 2.923967 4.3859649 4.9707438 10.1364522 6.1403306 17.251462z"/><path d="m56.26 41.2280702h-2.3371852c-.7790617-6.4327486-2.6780247-11.9395712-5.6968889-16.5204679-3.0188642-4.5808966-6.9141728-8.0409356-11.6859259-10.3801169 6.1351111 2.2417154 10.6634074 5.5555555 13.5848889 9.9415204 2.9214815 4.385965 4.9665185 10.0389864 6.1351111 16.9590644z"/><path d="m44.37 41.2280702h-2.32c-.6766667-6.4327486-2.5133333-11.9395712-5.51-16.5204679-2.9966667-4.5808966-6.67-8.0409356-11.02-10.3801169 5.3166667 2.0467836 9.4733333 5.116959 12.47 9.2105263 2.9966667 4.0935672 5.1233333 9.9902534 6.38 17.6900585z"/><path d="m0 18.7206522c2.92086331-3.0164812 6.13381295-4.378763 9.63884892-4.0868455 3.50503598.2919176 7.05875298 3.1137871 10.66115108 8.4656085-3.505036-6.0329624-7.058753-9.1467494-10.66115108-9.3413611-3.60239808-.1946116-6.81534772 1.4595877-9.63884892 4.9625981z"/><path d="m31.32 42.9824561h3.19v.8421053h-2.03v2.245614h1.74v.8421053h-1.74v2.245614h2.03v.8421053h-3.19z"/><path d="m35.38 46.4266494c.0966667-1.3394085.435-2.2961288 1.015-2.870161.58-.5740323 1.4016667-.7175403 2.465-.4305242v.8610483c-1.5466667-.2870161-2.32.5740322-2.32 2.583145s.7733333 2.8223251 2.32 2.4396369v.8610484c-1.16.2870161-2.03.095672-2.61-.5740323-.58-.6697042-.87-1.6264246-.87-2.8701611z"/><path d="m39.73 46.4266494c.0966667-1.3394085.435-2.2961288 1.015-2.870161.58-.5740323 1.4016667-.7175403 2.465-.4305242v.8610483c-1.5466667-.2870161-2.32.5740322-2.32 2.583145s.7733333 2.8223251 2.32 2.4396369v.8610484c-1.16.2870161-2.03.095672-2.61-.5740323-.58-.6697042-.87-1.6264246-.87-2.8701611z"/><path d="m43.79 47.368421h2.03v1h-2.03z"/><path d="m46.4 50v-7.0175439h1.16l2.03 4.4912281v-4.4912281h1.16v7.0175439h-1.16l-2.03-4.7719298v4.7719298z"/><path d="m53.4338625 45.0292398c1.2033215 0 1.7548439.8771929 1.6545671 2.6315789h-2.406643v.877193c0 .1461988.1504152.5847953.7520759.5847953.6016608 0 .752076-.4367871.752076-.5847953v-.2923977h.9024911v.4385965c0 .7309942-.6652326 1.3157895-1.6545671 1.3157895-.6959982 0-1.3178819-.3249099-1.654567-1.0233918-.131271-.2723327-.1814094-.905861-.1504152-1.9005848 0-1.3645224.6016607-2.0467836 1.8049822-2.0467836zm.0711375.8771929c-.4971931 0-.725.3341688-.725.8354219v.3341688h1.45v-.3341688c0-.5012531-.2418771-.8354219-.725-.8354219z"/><path d="m56.26 43.859649h1.16v6.140351h-1.16z"/><path d="m55.68 45.02924h2.32v1h-2.32z"/></g></svg>