<?xml version="1.0" encoding="UTF-8"?>
<svg width="169px" height="80px" viewBox="0 0 169 80" version="1.1" xmlns="http://www.w3.org/2000/svg" xmlns:xlink="http://www.w3.org/1999/xlink">
    <title>Artboard</title>
    <g id="Artboard" stroke="none" stroke-width="1" fill="none" fill-rule="evenodd">
        <path d="M155.151585,67.1351674 C155.66128,67.2774737 155.897015,67.5184903 156.087555,67.9518918 C156.374841,68.6053545 156.10651,69.4341792 155.881472,69.7578201 C155.824644,69.8395483 155.50406,70.2521453 154.960977,70.2521453 C154.481657,70.2521453 154.014449,70.312939 153.338811,70.2735584 L153.338655,72 L152.5,72 L152.5,67.0742329 L153,67.0733362 C153.289763,67.0700786 153.584519,67.0658926 153.862376,67.0641172 L154.263751,67.0640867 C154.646978,67.0675135 154.967552,67.0837857 155.151585,67.1351674 Z M153.340084,67.7176329 L153.338,69.4553362 L153.355418,69.4574717 C154.040962,69.5248047 154.665175,69.5890973 155.036191,69.377876 C155.444308,69.1455325 155.513478,68.6522561 155.316066,68.2032215 C155.19248,67.9221126 155.038719,67.8170418 154.698389,67.7220223 C154.454597,67.6539558 153.974295,67.7020634 153.340084,67.7176329 Z" id="Combined-Shape" fill="#DDDDDD"></path>
        <path d="M122.151585,67.1351674 C122.66128,67.2774737 122.897015,67.5184903 123.087555,67.9518918 C123.374841,68.6053545 123.10651,69.4341792 122.881472,69.7578201 C122.824644,69.8395483 122.50406,70.2521453 121.960977,70.2521453 C121.481657,70.2521453 121.014449,70.312939 120.338811,70.2735584 L120.338655,72 L119.5,72 L119.5,67.0742329 L120,67.0733362 C120.289763,67.0700786 120.584519,67.0658926 120.862376,67.0641172 L121.263751,67.0640867 C121.646978,67.0675135 121.967552,67.0837857 122.151585,67.1351674 Z M120.340084,67.7176329 L120.338,69.4553362 L120.355418,69.4574717 C121.040962,69.5248047 121.665175,69.5890973 122.036191,69.377876 C122.444308,69.1455325 122.513478,68.6522561 122.316066,68.2032215 C122.19248,67.9221126 122.038719,67.8170418 121.698389,67.7220223 C121.454597,67.6539558 120.974295,67.7020634 120.340084,67.7176329 Z" id="Combined-Shape" fill="#DDDDDD"></path>
        <rect id="Rectangle" fill="#DDDDDD" x="97.5" y="67" width="1" height="5"></rect>
        <path d="M128,66.9597417 L128,67.8097417 L126.35,67.8097417 L126.35,72 L125.5,72 L125.5,67.8097417 L124,67.8097417 L124,66.9597417 L128,66.9597417 Z" id="Combined-Shape" fill="#DDDDDD"></path>
        <path d="M138.5,66.9597417 L138.5,67.8097417 L136.85,67.8097417 L136.85,72 L136,72 L136,67.8097417 L134.5,67.8097417 L134.5,66.9597417 L138.5,66.9597417 Z" id="Combined-Shape" fill="#DDDDDD"></path>
        <path d="M130.05,67 L130.05,68.959 L132.399,68.959 L132.4,67 L133.25,67 L133.25,72 L132.4,72 L132.399,69.809 L130.05,69.809 L130.05,72 L129.2,72 L129.2,67 L130.05,67 Z" id="Combined-Shape" fill="#DDDDDD"></path>
        <rect id="Rectangle" fill="#DDDDDD" transform="translate(110.651175, 67.384742) rotate(-90.000000) translate(-110.651175, -67.384742) " x="110.226175" y="65.3847417" width="1" height="4"></rect>
        <rect id="Rectangle" fill="#DDDDDD" transform="translate(110.651175, 71.625000) rotate(-90.000000) translate(-110.651175, -71.625000) " x="110.226175" y="69.625" width="1" height="4"></rect>
        <rect id="Rectangle" fill="#DDDDDD" transform="translate(110.500000, 69.384742) rotate(-90.000000) translate(-110.500000, -69.384742) " x="110.075" y="67.8847417" width="1" height="3"></rect>
        <rect id="Rectangle" fill="#DDDDDD" x="101" y="67" width="1" height="5"></rect>
        <polygon id="Rectangle" fill="#DDDDDD" transform="translate(99.665688, 69.509109) rotate(-39.000000) translate(-99.665688, -69.509109) " points="99.3463019 66.7336139 100.196302 66.7336139 100.138647 71.7855027 99.1350749 72.2846044"></polygon>
        <path d="M138.523519,51.25 C141.361498,51.25 143.09088,52.6993063 143.09088,55.0439665 C143.09088,56.3408648 142.519685,57.2364656 141.585578,57.7507058 L143,57.75 L143,59.75 L139,59.75 L139,57.75 C139.83885,57.6208738 140.615358,55.8934811 140.615358,55.0439665 C140.615358,53.9769762 140.248258,53.2684466 138.523519,53.2684466 L138.50784,53.2684466 C136.759582,53.2684466 136.293793,53.8529126 136.293793,54.9131068 C136.293793,55.7286408 137.056247,57.573301 137.918616,57.75 L138,57.75 L138,59.75 L134,59.75 L134,57.75 L135.0844,57.75 L134.989055,57.6849096 C134.314769,57.1530925 133.967362,56.178525 133.924037,55.1371452 L133.9194,54.9131068 C133.9194,52.5752427 135.638502,51.25 138.50784,51.25 L138.523519,51.25 Z" id="Combined-Shape" fill="#DDDDDD"></path>
        <rect id="Rectangle" fill="#DDDDDD" x="108.2" y="37.5" width="1.25" height="8.25"></rect>
        <rect id="Rectangle" fill="#DDDDDD" x="109.2" y="51.5" width="2.5" height="8.25"></rect>
        <rect id="Rectangle" fill="#DDDDDD" x="130.2" y="51.5" width="2.5" height="8.25"></rect>
        <rect id="Rectangle" fill="#DDDDDD" x="113.2" y="51.5" width="2.5" height="8.25"></rect>
        <path d="M122.7,51.5 L122.7,51.577 L126,55.733 L126,51.5 L128.2,51.5 L128.2,59.75 L126,59.75 L126,59.538 L125.941511,59.5893031 L122.7,55.533 L122.7,59.75 L120.5,59.75 L120.5,51.5 L122.7,51.5 Z" id="Combined-Shape" fill="#DDDDDD"></path>
        <path d="M146.7,51.5 L146.7,51.881 L149.999,55.866 L150,51.5 L152.5,51.5 L152.5,59.75 L150,59.75 L149.999,59.633 L149.967825,59.6616003 L146.7,55.572 L146.7,59.75 L144.2,59.75 L144.2,51.5 L146.7,51.5 Z" id="Combined-Shape" fill="#DDDDDD"></path>
        <rect id="Rectangle" fill="#DDDDDD" transform="translate(116.233635, 52.717043) rotate(-90.000000) translate(-116.233635, -52.717043) " x="114.983635" y="49.717043" width="2.5" height="6"></rect>
        <rect id="Rectangle" fill="#DDDDDD" x="147" y="12.5" width="5" height="1.25"></rect>
        <circle id="Oval" stroke="#DDDDDD" stroke-width="1.1" cx="130.25" cy="13.25" r="3.7"></circle>
        <circle id="Oval" stroke="#DDDDDD" stroke-width="1.1" cx="112.25" cy="27.25" r="3.7"></circle>
        <circle id="Oval" stroke="#DDDDDD" stroke-width="1.1" cx="155.75" cy="41.75" r="3.7"></circle>
        <path d="M97.75,9.25 L97.75,10.5 L93,10.5 L93,12.649 L96.75,12.65 L96.75,13.9 L93,13.899 L93,16.25 L97.75,16.25 L97.75,17.5 L91.75,17.5 L91.75,9.25 L97.75,9.25 Z" id="Combined-Shape" fill="#DDDDDD"></path>
        <path d="M97.75,23.25 L97.75,24.5 L93,24.5 L93,26.649 L96.75,26.65 L96.75,27.9 L93,27.899 L93,30.25 L97.75,30.25 L97.75,31.5 L91.75,31.5 L91.75,23.25 L97.75,23.25 Z" id="Combined-Shape" fill="#DDDDDD"></path>
        <path d="M107.5,67 L107.5,67.8 L104.875,67.8 L104.875,69 L106.625,69 L106.625,69.8 L104.875,69.8 L104.875,71.199 L107.5,71.2 L107.5,72 L104.875,71.999 L104,72 L104,67 L107.5,67 Z" id="Combined-Shape" fill="#DDDDDD"></path>
        <path d="M119.75,37.5 L119.75,38.75 L115,38.75 L115,40.899 L118.75,40.9 L118.75,42.15 L115,42.149 L115,44.5 L119.75,44.5 L119.75,45.75 L113.75,45.75 L113.75,37.5 L119.75,37.5 Z" id="Combined-Shape" fill="#DDDDDD"></path>
        <path d="M135.75,37.5 L135.75,38.75 L131,38.75 L131,40.899 L134.75,40.9 L134.75,42.15 L131,42.149 L131,44.5 L135.75,44.5 L135.75,45.75 L129.75,45.75 L129.75,37.5 L135.75,37.5 Z" id="Combined-Shape" fill="#DDDDDD"></path>
        <rect id="Rectangle" fill="#DDDDDD" x="134.25" y="23.25" width="1.25" height="8.25"></rect>
        <rect id="Rectangle" fill="#DDDDDD" x="134.25" y="23.25" width="6" height="1.25"></rect>
        <rect id="Rectangle" fill="#DDDDDD" x="134.25" y="30.25" width="6" height="1.25"></rect>
        <rect id="Rectangle" fill="#DDDDDD" x="134.25" y="26.65" width="5" height="1.25"></rect>
        <rect id="Rectangle" fill="#DDDDDD" x="134.25" y="26.65" width="5" height="1.25"></rect>
        <path d="M149.329543,23.3760331 L152.385604,31.5560224 L150.976594,31.5560224 L150.152124,29.4990331 L146.795124,29.4990331 L145.971134,31.5560224 L144.562124,31.5560224 L147.618185,23.3760331 L149.329543,23.3760331 Z M149.651124,28.2490331 L148.473124,25.3080331 L147.295124,28.2490331 L149.651124,28.2490331 Z" id="Combined-Shape" fill="#DDDDDD"></path>
        <path d="M103.517419,37.5 L106.57348,45.6799893 L105.16447,45.6799893 L104.34,43.623 L100.983,43.623 L100.15901,45.6799893 L98.75,45.6799893 L101.806061,37.5 L103.517419,37.5 Z M103.839,42.373 L102.661,39.432 L101.483,42.373 L103.839,42.373 Z" id="Combined-Shape" fill="#DDDDDD"></path>
        <path d="M94.5468662,67 L96.5,72 L95.5994991,72 L95.073,70.743 L92.926,70.743 L92.4005009,72 L91.5,72 L93.4531338,67 L94.5468662,67 Z M94.753,69.979 L93.999,68.18 L93.246,69.979 L94.753,69.979 Z" id="Combined-Shape" fill="#DDDDDD"></path>
        <path d="M116.546866,67 L118.5,72 L117.599499,72 L117.073,70.743 L114.926,70.743 L114.400501,72 L113.5,72 L115.453134,67 L116.546866,67 Z M116.753,69.979 L115.999,68.18 L115.246,69.979 L116.753,69.979 Z" id="Combined-Shape" fill="#DDDDDD"></path>
        <path d="M149.546866,67 L151.5,72 L150.599499,72 L150.073,70.743 L147.926,70.743 L147.400501,72 L146.5,72 L148.453134,67 L149.546866,67 Z M149.753,69.979 L148.999,68.18 L148.246,69.979 L149.753,69.979 Z" id="Combined-Shape" fill="#DDDDDD"></path>
        <path d="M105.602383,51.508227 L108.586788,59.8565443 L106.02494,59.8565443 L105.498303,57.999227 L102.909303,57.999227 L102.357933,59.8427568 L99.7423032,59.8427568 L102.897617,51.508227 L105.602383,51.508227 Z M104.932303,55.999227 L104.239303,53.553227 L103.507303,55.999227 L104.932303,55.999227 Z" id="Combined-Shape" fill="#DDDDDD"></path>
        <path d="M125.517419,37.5 L128.57348,45.6799893 L127.16447,45.6799893 L124.661,39.432 L122.15901,45.6799893 L120.75,45.6799893 L123.806061,37.5 L125.517419,37.5 Z" id="Combined-Shape" fill="#DDDDDD"></path>
        <rect id="Rectangle" fill="#DDDDDD" x="153.25" y="30.3" width="6" height="1.25"></rect>
        <rect id="Rectangle" fill="#DDDDDD" x="153.25" y="23.3" width="6" height="1.25"></rect>
        <polygon id="Rectangle" fill="#DDDDDD" transform="translate(155.391417, 28.855624) rotate(-48.000000) translate(-155.391417, -28.855624) " points="152.885148 28.2307172 158.019293 28.2156574 158.01451 29.463217 152.763541 29.4955897"></polygon>
        <polygon id="Rectangle" fill="#DDDDDD" transform="translate(155.371758, 25.873325) scale(1, -1) rotate(-48.000000) translate(-155.371758, -25.873325) " points="152.968603 25.1820282 157.999634 25.2598122 157.931269 26.5646209 152.743882 26.5397444"></polygon>
        <path d="M106,9.25 L106,17.5 L104.75,17.5 L104.75,10.5 L100.75,10.5 L100.75,17.5 L99.5,17.5 L99.5,9.25 L106,9.25 Z" id="Combined-Shape" fill="#DDDDDD"></path>
        <path d="M106,23.25 L106,31.5 L104.75,31.5 L104.75,24.5 L100.75,24.5 L100.75,31.5 L99.5,31.5 L99.5,23.25 L106,23.25 Z" id="Combined-Shape" fill="#DDDDDD"></path>
        <path d="M99,51.5 L99,60 L97,60 L97,53.625 L94,53.625 L94,60 L92,60 L92,51.5 L99,51.5 Z" id="Combined-Shape" fill="#DDDDDD"></path>
        <path d="M142.75,37.5 L142.75,38.75 L138.75,38.75 L138.75,45.75 L137.5,45.75 L137.5,37.5 L142.75,37.5 Z" id="Combined-Shape" fill="#DDDDDD"></path>
        <path d="M125,23.25 L125,31.5 L123.75,31.5 L123.75,24.5 L119.75,24.5 L119.75,31.5 L118.5,31.5 L118.5,23.25 L125,23.25 Z" id="Combined-Shape" fill="#DDDDDD"></path>
        <path d="M143,9.25 L143,17.5 L141.75,17.5 L141.75,10.5 L137.75,10.5 L137.75,17.5 L136.5,17.5 L136.5,9.25 L143,9.25 Z" id="Combined-Shape" fill="#DDDDDD"></path>
        <rect id="Rectangle" fill="#DDDDDD" x="108.5" y="9.25" width="1.25" height="8.25"></rect>
        <rect id="Rectangle" fill="#DDDDDD" x="141.75" y="23.25" width="1.25" height="8.25"></rect>
        <rect id="Rectangle" fill="#DDDDDD" x="163.75" y="41.5" width="1.25" height="4"></rect>
        <path d="M144.887648,37.4810209 L146.922982,40.3950209 L148.959016,37.4810209 L150.497263,37.4810209 L147.724982,41.5430209 L150.682682,45.7747229 L149.008577,45.7747229 L146.922982,42.7190209 L144.838086,45.7747229 L143.163982,45.7747229 L146.120982,41.5430209 L143.349401,37.4810209 L144.887648,37.4810209 Z" id="Combined-Shape" fill="#DDDDDD"></path>
        <path d="M157.746253,67 L159.099,68.756 L160.453747,67 L161.476695,67 L159.633,69.449 L161.6,72 L160.486706,72 L159.099,70.158 L157.713294,72 L156.6,72 L158.566,69.449 L156.723305,67 L157.746253,67 Z" id="Combined-Shape" fill="#DDDDDD"></path>
        <polygon id="Rectangle" fill="#DDDDDD" transform="translate(165.896922, 39.776698) rotate(35.000000) translate(-165.896922, -39.776698) " points="165.118822 37.6500197 166.464394 36.7078402 166.675021 42.8455557 165.332673 42.4940255"></polygon>
        <polygon id="Rectangle" fill="#DDDDDD" transform="translate(162.663051, 39.671121) scale(-1, 1) rotate(35.000000) translate(-162.663051, -39.671121) " points="161.93335 37.640078 163.227418 36.7339613 163.392753 42.60828 162.052094 42.5500404"></polygon>
        <rect id="Rectangle" fill="#DDDDDD" x="91.75" y="37.5" width="1.25" height="8.25"></rect>
        <polygon id="Rectangle" fill="#DDDDDD" transform="translate(96.215851, 43.496467) rotate(-37.000000) translate(-96.215851, -43.496467) " points="95.632317 40.4282359 96.9660437 40.3191913 96.7095815 46.6737425 95.4656581 45.736379"></polygon>
        <polygon id="Rectangle" fill="#DDDDDD" transform="translate(94.823315, 40.507504) rotate(44.000000) translate(-94.823315, -40.507504) " points="94.1983154 36.9351867 95.3430141 35.829764 95.4483154 45.1851867 94.3584567 44.0566049"></polygon>
        <path d="M117.5,9.25 L117.5,10.5 L115,10.5 L115,17.5 L113.75,17.5 L113.75,10.5 L111,10.5 L111,9.25 L117.5,9.25 Z" id="Combined-Shape" fill="#DDDDDD"></path>
        <path d="M132.75,23.25 L132.75,24.5 L130.25,24.5 L130.25,31.5 L129,31.5 L129,24.5 L126.25,24.5 L126.25,23.25 L132.75,23.25 Z" id="Combined-Shape" fill="#DDDDDD"></path>
        <path d="M122.586181,9.25648816 C123.501704,9.49483205 124.045687,9.98855026 124.387937,10.7144398 C124.903965,11.8089023 124.740724,13.131843 124.336508,13.6738982 C124.234433,13.810782 124.131866,13.9278237 124.025028,14.0288183 C123.731939,14.3058764 123.451784,14.4397038 122.980715,14.5725775 C122.941772,14.5835621 122.833361,14.6130358 122.739181,14.6386749 L122.594598,14.6782259 C122.117198,14.8114389 121.26779,14.8241077 120.002183,14.728458 L120,17.5 L118.75,17.5 L118.75,9.25 L119.324,9.24966985 C120.848891,9.08437308 121.925056,9.08437308 122.586181,9.25648816 Z M120.000751,10.1840545 L120.001117,13.7253596 C121.194117,13.8179938 121.98445,13.810279 122.325826,13.7150219 C122.394997,13.6957206 122.651042,13.626548 122.70924,13.6101321 C123.038749,13.517188 123.183917,13.4478426 123.338075,13.3021167 C123.401056,13.2425797 123.465866,13.1686242 123.534861,13.0761018 C123.723204,12.8235321 123.838027,11.8929775 123.483432,11.1409047 C123.261446,10.6700849 122.945548,10.3833763 122.334243,10.2242313 C121.893717,10.1095463 121.108629,10.0933182 120.000751,10.1840545 Z" id="Combined-Shape" fill="#DDDDDD"></path>
        <rect id="Rectangle" fill="#DDDDDD" x="145.75" y="9.25" width="1.25" height="8.25"></rect>
        <rect id="Rectangle" fill="#DDDDDD" x="151" y="9.25" width="1.25" height="8.25"></rect>
        <path d="M163.55,67 L163.55,68.959 L165.899,68.959 L165.9,67 L166.75,67 L166.75,72 L165.9,72 L165.899,69.809 L163.55,69.809 L163.55,72 L162.7,72 L162.7,67 L163.55,67 Z" id="Combined-Shape" fill="#DDDDDD"></path>
        <path d="M140.55,67 L140.55,68.959 L142.899,68.959 L142.9,67 L143.75,67 L143.75,72 L142.9,72 L142.899,69.809 L140.55,69.809 L140.55,72 L139.7,72 L139.7,67 L140.55,67 Z" id="Combined-Shape" fill="#DDDDDD"></path>
        <line x1="91.5" y1="0.5" x2="168.5" y2="0.5" id="Line" stroke="#DDDDDD" stroke-width="0.5" stroke-linecap="square"></line>
        <path d="M75.2,0 C77.8509668,0 80,2.1490332 80,4.8 L80,75.2 C80,77.779319 77.965561,79.8834694 75.4138108,79.9953232 L75.2,80 L4.8,80 C2.1490332,80 0,77.8509668 0,75.2 L0,4.8 C0,2.1490332 2.1490332,0 4.8,0 L75.2,0 Z M75.2,0.8 L4.8,0.8 C2.590861,0.8 0.8,2.590861 0.8,4.8 L0.8,75.2 C0.8,77.409139 2.590861,79.2 4.8,79.2 L75.2,79.2 C77.409139,79.2 79.2,77.409139 79.2,75.2 L79.2,4.8 C79.2,2.590861 77.409139,0.8 75.2,0.8 Z M66,43.1437289 C67.3254834,43.1437289 68.4,44.2182455 68.4,45.5437289 L68.4,64.7437289 C68.4,66.0692123 67.3254834,67.1437289 66,67.1437289 C64.6745166,67.1437289 63.6,66.0692123 63.6,64.7437289 L63.6,47.9997289 L49.704,47.9997289 L49.7049297,64.7437289 C49.7049297,66.0692123 48.6304131,67.1437289 47.3049297,67.1437289 C45.9794463,67.1437289 44.9049297,66.0692123 44.9049297,64.7437289 L44.9035778,46.29964 C44.8362252,46.0782861 44.8,45.8433735 44.8,45.6 C44.8,44.6603325 45.3400238,43.8467944 46.1266516,43.4528055 C46.4742954,43.255987 46.8765029,43.1437289 47.3049297,43.1437289 C47.4824498,43.1437289 47.6554683,43.1630023 47.8220069,43.1995709 L65.4821349,43.199744 C65.6489157,43.1630632 65.8221999,43.1437289 66,43.1437289 Z M29.6076015,52.9224089 C33.3970855,52.9224089 33.143841,57.3839944 29.6076015,57.3839944 L22.1568434,57.3835734 C21.873795,57.3828608 21.6065237,57.3812872 21.3538382,57.3791881 C21.1903713,57.3778303 21.03283,57.3762505 20.8810836,57.3745414 C20.8746338,57.3744688 20.8670364,57.3743828 20.8594536,57.3742965 L20.8810836,57.3745414 C20.7541324,57.3731116 20.6312369,57.3715913 20.5122077,57.3700338 C20.3820784,57.3683312 20.25657,57.3665841 20.1354351,57.3648625 C20.0267319,57.3633175 19.921782,57.3617964 19.8201603,57.3603458 C19.8146681,57.3602674 19.8080744,57.3601733 19.8014948,57.3600796 L19.8201603,57.3603458 C19.6877334,57.3584554 19.5609585,57.3566847 19.4394423,57.3551445 C19.3507075,57.3540198 19.2649616,57.3530201 19.1818554,57.3521857 C19.0995386,57.3513598 19.0203878,57.3506999 18.9436441,57.3502407 L18.6026235,57.3497066 C18.4316393,57.3503526 18.2738216,57.3525913 18.1270267,57.3570265 C18.1154156,57.3573774 18.1039551,57.3577393 18.0925616,57.3581151 L18.1270267,57.3570265 C18.0524114,57.3592809 17.9806439,57.3621028 17.9114428,57.3655715 L18.0925616,57.3581151 C18.0258171,57.3603164 17.9613701,57.3629928 17.8990118,57.366203 L17.9114428,57.3655715 C17.8464268,57.3688304 17.7836761,57.3726602 17.7229574,57.3771268 L17.8990118,57.366203 C17.7468947,57.3740338 17.6072069,57.3850412 17.4769179,57.4000788 C17.3776433,57.4115489 17.284366,57.4252619 17.1951616,57.4416591 C17.176372,57.4451129 17.1577691,57.4486847 17.1393345,57.4523789 L17.1951616,57.4416591 C17.0869585,57.4615485 16.9847479,57.4853871 16.8861794,57.513837 C16.8744303,57.5172265 16.8623842,57.5207871 16.8503887,57.5244183 C16.8041073,57.5384285 16.7585788,57.5534912 16.7135535,57.5696766 C16.6752637,57.5834521 16.6380149,57.5977624 16.6009708,57.6128971 L16.7135535,57.5696766 C16.6696899,57.5854445 16.6263038,57.6022779 16.5831644,57.620242 L16.6009708,57.6128971 C16.5583562,57.6303077 16.5160124,57.6488092 16.473718,57.668464 L16.5831644,57.620242 C16.5301155,57.6423327 16.4774395,57.6661331 16.4247073,57.6917642 L16.473718,57.668464 C16.1906999,57.7999862 15.9098901,57.983151 15.5649359,58.2366503 C15.0352589,58.6258982 14.9714075,59.1202938 14.8889769,59.6116017 C14.7898988,60.2021338 15.0404706,60.9539754 15.5649359,61.4557974 C15.7242031,61.6081884 15.93078,61.7196597 16.138764,61.8141577 C16.2592463,61.8689093 16.3805266,61.9180746 16.4932958,61.9662017 C16.5197121,61.9774748 16.5458578,61.9887766 16.5714114,62.0000822 L34.4,62 C35.7254834,62 36.8,63.0745166 36.8,64.4 C36.8,65.7254834 35.7254834,66.8 34.4,66.8 L12.1429792,66.8 C11.202477,66.8 10.1969429,65.7364044 10.1969429,64.6622561 L10.1969429,54.7593094 C10.3255497,54.1740494 10.5051995,53.7813475 10.7358923,53.5812037 C10.9973512,53.3543681 11.5619974,52.9224089 11.9777401,52.9224089 Z M34.4,44 C35.7254834,44 36.8,45.0745166 36.8,46.4 C36.8,47.7254834 35.7254834,48.8 34.4,48.8 L12,48.8 C10.6745166,48.8 9.6,47.7254834 9.6,46.4 C9.6,45.0745166 10.6745166,44 12,44 L34.4,44 Z M68,32 C69.3254834,32 70.4,33.0745166 70.4,34.4 C70.4,35.7254834 69.3254834,36.8 68,36.8 L45.6,36.8 C44.2745166,36.8 43.2,35.7254834 43.2,34.4 C43.2,33.0745166 44.2745166,32 45.6,32 L68,32 Z M29.6076015,22.5224089 C33.3970855,22.5224089 33.143841,26.9839944 29.6076015,26.9839944 L22.1568434,26.9835734 C20.7404737,26.9800076 19.7191597,26.9548814 18.9436441,26.9502407 L18.6026235,26.9497066 C17.0334603,26.9556355 16.5732017,27.095698 15.5649359,27.8366503 C15.0352589,28.2258982 14.9714075,28.7202938 14.8889769,29.2116017 C14.7898988,29.8021338 15.0404706,30.5539754 15.5649359,31.0557974 C15.8384043,31.3174591 16.2513528,31.4584801 16.5714114,31.6000822 L34.4,31.6 C35.7254834,31.6 36.8,32.6745166 36.8,34 C36.8,35.3254834 35.7254834,36.4 34.4,36.4 L12.1429792,36.4 C11.202477,36.4 10.1969429,35.3364044 10.1969429,34.2622561 L10.1969429,24.3593094 C10.3255497,23.7740494 10.5051995,23.3813475 10.7358923,23.1812037 C10.9973512,22.9543681 11.5619974,22.5224089 11.9777401,22.5224089 L29.6076015,22.5224089 Z M66.4,12.9224089 C67.7254834,12.9224089 68.8,13.9969255 68.8,15.3224089 C68.8,16.6478923 67.7254834,17.7224089 66.4,17.7224089 L48.5714114,17.7223267 C48.2513528,17.8639288 47.8384043,18.0049498 47.5649359,18.2666114 C47.0404706,18.7684335 46.7898988,19.5202751 46.8889769,20.1108072 C46.9714075,20.6021151 47.0352589,21.0965107 47.5649359,21.4857586 C48.5732017,22.2267109 49.0334603,22.3667733 50.6026235,22.3727023 L50.9436441,22.3721682 C51.7191597,22.3675275 52.7404737,22.3424012 54.1568434,22.3388355 L61.6076015,22.3384144 C65.143841,22.3384144 65.3970855,26.8 61.6076015,26.8 L43.9777401,26.8 C43.5619974,26.8 42.9973512,26.3680408 42.7358923,26.1412052 C42.5051995,25.9410614 42.3255497,25.5483595 42.1969429,24.9630995 L42.1969429,15.0601528 C42.1969429,13.9860044 43.202477,12.9224089 44.1429792,12.9224089 Z M34,12.8 C35.3254834,12.8 36.4,13.8745166 36.4,15.2 C36.4,16.5254834 35.3254834,17.6 34,17.6 L12,17.6 C10.6745166,17.6 9.6,16.5254834 9.6,15.2 C9.6,13.8745166 10.6745166,12.8 12,12.8 L34,12.8 Z" id="Combined-Shape" fill="#DDDDDD" fill-rule="nonzero"></path>
        <line x1="91.5" y1="79.5" x2="168.5" y2="79.5" id="Line" stroke="#DDDDDD" stroke-width="0.5" stroke-linecap="square"></line>
    </g>
</svg>