<svg height="39" viewBox="0 0 163 39" width="100" xmlns="http://www.w3.org/2000/svg" xmlns:xlink="http://www.w3.org/1999/xlink"><filter id="a"><feColorMatrix in="SourceGraphic" values="0 0 0 0 0.600000 0 0 0 0 0.600000 0 0 0 0 0.600000 0 0 0 1.000000 0"/></filter><filter id="b"><feColorMatrix in="SourceGraphic" values="0 0 0 0 0.600000 0 0 0 0 0.000000 0 0 0 0 0.000000 0 0 0 1.000000 0"/></filter><filter id="c"><feColorMatrix in="SourceGraphic" values="0 0 0 0 0.600000 0 0 0 0 0.000000 0 0 0 0 0.000000 0 0 0 1.000000 0"/></filter><g fill="none" fill-rule="evenodd" filter="url(#a)" transform="translate(-16 3)"><g filter="url(#b)"><g fill="#999" fill-rule="nonzero"><path d="m20.646 26.786h-.559l-2.47 2.235v-2.235h-.411v4.999h.411v-2.235l.089-.088 2.528 2.323h.559l-2.793-2.588zm1.382 2.529h2.323v-.382h-2.323v-1.764h2.382v-.383h-2.794v4.999h2.823v-.353h-2.411zm8.556-2.146h1.382v4.616h.412v-4.616h1.352v-.383h-3.146zm6.292-.059c-.147-.118-.294-.177-.5-.236a2.09 2.09 0 0 0 -.617-.088h-1.029v4.999h.412v-2.323h.5c.235 0 .47-.03.676-.059.206-.059.382-.118.5-.206.176-.117.294-.264.382-.44a1.41 1.41 0 0 0 .147-.648c.03-.411-.147-.735-.47-1zm-1.705.058h.47c.177 0 .324 0 .471.03s.294.088.382.147c.147.088.265.176.324.323.088.118.117.265.117.441 0 .353-.147.618-.44.794-.118.088-.265.118-.412.147-.147.03-.324.03-.53.03h-.411v-1.912h.03zm7.704.324a2.88 2.88 0 0 0 -.853-.559 2.52 2.52 0 0 0 -1.059-.206 2.52 2.52 0 0 0 -1.058.206c-.323.147-.618.324-.853.559s-.44.5-.588.823a2.344 2.344 0 0 0 -.206 1c0 .353.06.705.206 1 .147.294.324.588.559.823s.53.411.853.558.705.206 1.087.206a2.52 2.52 0 0 0 1.059-.206c.323-.147.617-.323.853-.558.235-.235.44-.5.588-.824.147-.323.206-.646.206-1 0-.352-.06-.675-.206-.999-.177-.323-.353-.617-.588-.823zm-1.941-.382c.323 0 .618.058.912.176s.529.265.735.47c.205.206.352.412.5.706.117.265.176.53.176.853 0 .294-.059.588-.177.852-.117.265-.294.5-.5.706a2.105 2.105 0 0 1 -.734.47 2.396 2.396 0 0 1 -.912.177 2.29 2.29 0 0 1 -.911-.176 2.105 2.105 0 0 1 -.736-.47c-.205-.207-.382-.442-.47-.707a2.11 2.11 0 0 1 -.176-.852c0-.294.058-.588.176-.853s.294-.5.5-.706c.206-.205.44-.352.735-.47.235-.118.559-.176.882-.176zm10.438.382c-.235-.235-.53-.412-.853-.559a3 3 0 0 0 -2.146 0 2.88 2.88 0 0 0 -.853.559c-.235.235-.44.5-.588.823a2.344 2.344 0 0 0 -.206 1c0 .353.06.676.206 1 .147.323.324.588.588.823.236.235.53.411.853.558s.706.206 1.059.206a2.52 2.52 0 0 0 1.058-.206c.323-.147.617-.323.853-.558.235-.235.44-.5.588-.824.147-.323.206-.646.206-1 0-.352-.06-.675-.206-.999a2.05 2.05 0 0 0 -.559-.823zm.353 1.793c0 .294-.059.588-.176.853-.118.265-.295.5-.5.706a2.105 2.105 0 0 1 -.735.47 2.443 2.443 0 0 1 -1.823 0 2.63 2.63 0 0 1 -.735-.47 2.372 2.372 0 0 1 -.5-.706 2.11 2.11 0 0 1 -.177-.853c0-.294.06-.588.177-.852.117-.265.294-.5.5-.706.205-.206.44-.353.735-.47.294-.118.588-.177.911-.177.324 0 .618.059.912.177.294.117.529.264.735.47.205.206.382.441.5.706.117.294.176.558.176.852z"/><path d="m47.462 29.08h3.911v1h-3.911zm6.262.235h2.323v-.382h-2.323v-1.764h2.382v-.383h-2.793v4.999h2.822v-.353h-2.411zm5.469-2.205c-.147-.118-.294-.177-.5-.236a2.238 2.238 0 0 0 -.617-.088h-1.03v4.999h.413v-2.323h.5c.235 0 .47-.03.676-.059.205-.059.382-.118.5-.206.147-.117.294-.264.382-.44.117-.177.147-.383.147-.648a1.106 1.106 0 0 0 -.47-1zm-1.705.058h.47c.177 0 .324 0 .47.03.148.03.295.088.383.147.147.088.265.176.323.323.089.118.118.265.118.441 0 .353-.147.618-.44.794-.119.088-.266.118-.413.147-.147.03-.323.03-.529.03h-.411v-1.912zm7.645 4.617h.411v-4.616h2.941v4.616h.441v-5h-3.793zm5.674-2.47h2.323v-.382h-2.323v-1.764h2.353v-.383h-2.794v4.999h2.823v-.353h-2.382zm3.352-2.529h1v4.999h-1zm7.263 4.646 1.735-2.323-1.647-1.94h2.411v-.383h-3.234l1.97 2.323-2 2.676h3.323v-.353zm-51.867.353-3.822-4.381v4.38h-.383v-4.998h.324l3.705 4.293v-4.293h.382v4.999zm32.343-4.381-1.058 2.293h2.087zm2 4.38-.823-1.793h-2.382l-.823 1.794h-.383l2.294-4.999h.206l2.293 4.999h-.382zm13.996-4.38-1.059 2.293h2.088l-1.03-2.293zm1.999 4.38-.823-1.793h-2.382l-.823 1.794h-.353l2.293-4.999h.206l2.294 4.999h-.412zm37.43.001v-4.44h-.03l-1.852 2.323-1.852-2.323h-.03v4.44h-.382v-5h.382l1.882 2.295 1.882-2.294h.382v4.999zm-6.322 0v-2.352h-3.264v2.352h-.382v-5h.382v2.324h3.264v-2.323h.382v4.999zm-23.581-2.47h2.323v-.382h-2.323v-1.764h2.382v-.383h-2.794v4.999h2.794v-.353h-2.382zm4.94 0h1.058v-.382h-1.058v-1.764h1.382v-.383h-3.176v.383h1.382v1.764h-1v.382h1v2.117h-1.41v.353h3.233v-.353h-1.41zm9.762-2.205c-.147-.118-.294-.177-.5-.236a1.955 1.955 0 0 0 -.618-.088h-1.029v4.999h.412v-2.323h.5c.235 0 .47-.03.676-.059.206-.03.353-.118.5-.206.147-.117.294-.264.382-.44a1.41 1.41 0 0 0 .147-.648c.03-.411-.117-.735-.47-1zm-1.706.058h.47c.177 0 .324 0 .471.03s.265.088.382.147c.147.088.265.176.324.323.088.118.117.265.117.441 0 .353-.147.618-.411.794a1.7 1.7 0 0 1 -.412.147c-.147.03-.323.03-.529.03h-.412zm2.882.001h1.382v4.616h.411v-4.616h1.353v-.383h-3.146zm16.73 2.146h2.323v-.382h-2.323v-1.764h2.352v-.383h-2.764v4.999h2.794v-.353h-2.382zm13.437-1.794c-.235-.235-.529-.411-.852-.558a2.922 2.922 0 0 0 -2.117 0c-.324.147-.618.323-.853.558s-.441.5-.588.794-.206.647-.206 1c0 .235.03.47.088.705.059.236.177.442.294.618.147.206.294.353.47.5.148.117.295.206.442.264h-1.206v.383h2.058v-.383h-.029a2.405 2.405 0 0 1 -.706-.294c-.205-.117-.382-.294-.558-.47-.147-.176-.294-.382-.353-.618a1.892 1.892 0 0 1 .03-1.528c.117-.265.293-.5.47-.677.206-.206.44-.353.735-.47a2.29 2.29 0 0 1 .911-.177c.324 0 .618.06.912.177s.529.264.735.47.382.441.5.677c.117.264.176.558.176.823 0 .235-.03.5-.117.705a2.115 2.115 0 0 1 -.353.618 2.161 2.161 0 0 1 -.559.47 1.891 1.891 0 0 1 -.706.294h-.03v.383h2.06v-.383h-1.177l.441-.264c.176-.147.353-.324.47-.5a1.99 1.99 0 0 0 .295-.618 2.9 2.9 0 0 0 .088-.705c0-.353-.059-.676-.206-1a2.066 2.066 0 0 0 -.559-.794zm14.349-.352h1.382v4.616h.411v-4.616h1.382v-.383h-3.175zm8.35.323c-.235-.235-.529-.412-.852-.559-.647-.264-1.47-.264-2.147 0-.323.147-.617.324-.852.559-.236.235-.441.5-.588.823-.147.294-.206.647-.206 1s.059.705.206 1c.147.294.323.588.558.823s.53.411.853.529.676.206 1.088.206a2.52 2.52 0 0 0 1.058-.206c.324-.147.618-.323.853-.559a2.8 2.8 0 0 0 .588-.823c.147-.323.206-.647.206-1 0-.352-.059-.705-.206-1a2.066 2.066 0 0 0 -.559-.793zm.383 1.793c0 .294-.06.588-.177.853s-.294.5-.5.706a2.105 2.105 0 0 1 -.735.47 2.443 2.443 0 0 1 -1.823 0 2.105 2.105 0 0 1 -.735-.47c-.206-.206-.382-.441-.47-.706a2.11 2.11 0 0 1 -.177-.853c0-.294.06-.588.177-.852.117-.265.294-.5.5-.706.205-.206.44-.353.735-.47a2.29 2.29 0 0 1 .911-.177c.324 0 .618.059.912.177.264.117.529.264.735.47s.382.441.5.706c.088.264.147.558.147.852zm12.202 1.353a2.01 2.01 0 0 0 .294-.618c.059-.235.118-.47.118-.705 0-.353-.06-.676-.206-1a2.536 2.536 0 0 0 -.588-.794c-.236-.235-.53-.411-.853-.558-.676-.265-1.47-.265-2.117 0-.323.147-.618.323-.853.558s-.44.5-.558.794c-.147.294-.206.647-.206 1 0 .235.03.47.088.705.059.236.176.442.294.618.147.206.294.353.47.5.147.117.294.206.442.264h-1.206v.383h2.058v-.383h-.03a2.405 2.405 0 0 1 -.705-.294c-.206-.147-.412-.294-.559-.47a2.115 2.115 0 0 1 -.352-.618 1.878 1.878 0 0 1 .03-1.529c.117-.264.293-.5.47-.676.205-.206.44-.353.735-.47.558-.235 1.264-.235 1.793 0 .294.117.53.264.735.47.206.206.382.412.5.677.118.264.176.529.176.823a2 2 0 0 1 -.147.705 2.115 2.115 0 0 1 -.352.618 2.161 2.161 0 0 1 -.559.47 1.891 1.891 0 0 1 -.706.294h-.03v.383h2.06v-.383h-1.206l.44-.264c.265-.147.412-.324.53-.5zm-71.861-3.234-1.059 2.293h2.088zm2 4.38-.824-1.793h-2.382l-.823 1.794h-.382l2.293-4.999h.206l2.294 4.999h-.383zm28.667.001-3.822-4.381v4.38h-.382v-4.998h.323l3.734 4.293v-4.293h.382v4.999zm11.997 0-3.823-4.381v4.38h-.382v-4.998h.323l3.705 4.293v-4.293h.382v4.999zm34.842 0-3.822-4.381v4.38h-.383v-4.998h.324l3.734 4.293v-4.293h.382v4.999zm-12.084 0v-4.44h-.03l-1.852 2.323-1.853-2.323h-.029v4.44h-.382v-5h.382l1.882 2.295 1.881-2.294h.383v4.999zm-17.26-4.381-1.029 2.293h2.088zm2.029 4.38-.823-1.793h-2.382l-.823 1.794h-.383l2.294-4.999h.206l2.293 4.999h-.382z"/></g></g><g filter="url(#c)"><path d="m63.163 20.906-9.644-9.233v9.233h-1.411v-18.407h1.41v9.174l8.822-9.174h1.793l-8.762 9.174 9.586 9.233zm4.44 0v-18.407h10.026v1.176h-8.585v7.381h8.38v1.176h-8.38v7.468h8.82v1.206h-10.26m41.81.058v-18.406h10.026v1.206h-8.585v7.35h8.38v1.176h-8.38v7.498h8.82v1.176zm28.815 0-2.911-6.38h-8.968l-2.911 6.38h-1.47l8.497-18.524h.794l8.498 18.524h-1.53m-7.409-16.2-3.94 8.673h7.91l-3.97-8.674z" fill="#999" fill-rule="nonzero"/><path d="m95.506 11.29s-2.264-.852-3.41 1.441c-.648 1.265 1.97 2.823 3.234 2.794 1.029-.03 1.382-.53 1.529-1.53.117-.822-.177-1.558-1.235-1.763a1.491 1.491 0 0 0 -1.588.676c-.559.823.353 1.911 1.5 1.882 1.146-.03 1.97-.765 2.116-2.059.177-1.293-.793-2.352-2.734-2.146-1.117.118-1.882.382-1.97 1.323s1.588 1.353 2.47 1.118c.911-.236 2.058-1.03 2.058-1.03s-.235-2.058-2.117-2.734c-1.147-.412-2.881 1.294-3.029 2.352-.147 1.088 1.794 2.617 2.94 2.411 1.148-.176 2.118-2.087 2.118-2.087 0-8.35-11.997 2.705-3.293 3.263l3.293-1.91c0-1.824-.97-4.558-3.264-4.264-1.47.176-2.617 1.352-2.676 2.97-.058 1.617 2.088 2.499 3.44 2.352 1.353-.147 2.559-2.235 2.559-2.235s-.677-2.176-2.117-2.235c-1.441-.058-2.53 1.147-2.676 1.823-.118.677.265 1.441.794 1.735.53.294 1.44.059 1.44.059m.383-12.173c-10.115-2.233-23.434 22.082-1.471 22.082 15.819 0 15.114-23.405 1.618-23.405-17.172 0-20.582 22.023-2.529 22.964 17.495.911 18.2-22.817 4.381-22.817-18.406 0-21.582 23.258-6.086 23.258 14.054 0 16.377-19.788 3.675-19.788-16.583 0-14.23 19.053 0 19.053 13.35 0 11.908-18.318-1.323-18.318-13.555 0-12.261 14.995-.588 17.73 12.702 2.97 13.408-20.024 2.97-20.024-13.673 0-14.408 19.289-1.382 19.289 12.202 0 12.996-20.612 1.323-20.612-13.584 0-21.023 19.024-4.91 20.082 14.23.941 17.318-16.936 5.792-16.936-12.438 0-15.113 16.642-2.205 16.642 13.378 0 13.407-17.524.147-17.524-13.29 0-12.203 18.906-.441 18.906 11.026 0 10.702-20.023.44-20.023-11.466 0-13.525 17.583-.44 17.583 10.467 0 15.79-23.523-3.587-15.172" stroke="#999" stroke-linecap="round" stroke-width=".5"/></g></g></svg>